<?xml version="1.0" standalone="no"?>
<!DOCTYPE svg PUBLIC "-//W3C//DTD SVG 20010904//EN"
 "http://www.w3.org/TR/2001/REC-SVG-20010904/DTD/svg10.dtd">
<svg version="1.0" xmlns="http://www.w3.org/2000/svg"
 width="700.000000pt" height="700.000000pt" viewBox="0 0 700.000000 700.000000"
 preserveAspectRatio="xMidYMid meet">
<metadata>
Created by potrace 1.14, written by Peter Selinger 2001-2017
</metadata>
<g transform="translate(0.000000,700.000000) scale(0.100000,-0.100000)"
fill="#000000" stroke="none">
<path d="M3402 6982 c-92 -38 -153 -112 -169 -207 -5 -27 -8 -182 -8 -342 0
-161 -1 -293 -3 -293 -2 0 -87 62 -188 137 -101 76 -198 143 -216 150 -55 19
-152 16 -202 -8 -56 -26 -110 -78 -138 -132 -29 -56 -31 -175 -4 -227 38 -71
63 -93 404 -349 l348 -262 -1 -541 c0 -468 -2 -542 -15 -549 -8 -4 -53 -27
-99 -49 -79 -39 -127 -69 -192 -121 l-27 -21 -53 29 c-30 17 -153 88 -274 158
-121 70 -240 139 -265 153 -25 14 -78 45 -118 69 -41 24 -75 43 -76 43 -2 0
-38 21 -82 48 -53 31 -80 54 -81 67 -9 98 -15 147 -18 165 -2 12 -7 51 -11 88
-3 36 -8 75 -10 87 -2 11 -7 47 -10 80 -3 33 -7 71 -10 85 -4 27 -21 165 -30
245 -13 127 -60 208 -149 261 -128 74 -310 15 -375 -123 -25 -51 -31 -134 -18
-228 20 -144 40 -327 35 -331 -3 -3 -35 13 -71 35 -37 23 -68 41 -71 41 -3 0
-29 16 -59 35 -30 19 -57 35 -60 35 -2 0 -62 34 -131 75 -150 89 -191 104
-266 100 -112 -7 -213 -86 -244 -191 -19 -66 -19 -97 1 -163 26 -90 67 -124
360 -293 145 -84 264 -155 264 -158 0 -3 -69 -34 -153 -69 -294 -124 -319
-141 -365 -240 -33 -73 -28 -176 12 -245 32 -55 103 -110 163 -127 86 -24 125
-12 528 160 209 90 389 166 400 171 16 6 125 -53 490 -264 l470 -272 -5 -39
c-6 -52 -6 -259 0 -309 l5 -40 -80 -46 c-114 -66 -550 -318 -588 -339 -18 -10
-84 -49 -147 -86 -63 -37 -122 -67 -130 -67 -8 0 -190 76 -405 169 -390 168
-390 168 -465 168 -64 0 -83 -4 -129 -30 -94 -52 -141 -133 -141 -244 0 -66
31 -140 80 -188 35 -35 78 -57 307 -154 84 -35 153 -67 153 -70 0 -4 -66 -45
-146 -90 -347 -199 -378 -217 -411 -247 -133 -123 -94 -362 72 -442 53 -26
146 -33 197 -16 20 7 152 80 294 162 142 82 262 151 267 153 8 3 3 -113 -8
-164 -2 -11 -6 -39 -9 -63 -3 -23 -9 -70 -13 -105 -14 -113 -8 -177 20 -233
89 -175 318 -205 447 -58 58 66 61 79 94 379 4 28 8 59 10 70 2 11 7 51 11 88
3 37 8 76 10 86 2 10 6 42 9 72 4 30 8 68 10 84 2 17 7 59 11 95 9 84 18 105
52 122 15 8 102 57 193 110 91 53 184 106 206 119 23 13 145 84 273 157 l231
134 66 -50 c64 -48 143 -92 229 -127 l40 -17 0 -543 c0 -350 -4 -547 -10 -553
-7 -6 -508 -381 -580 -434 -82 -61 -125 -103 -150 -149 -26 -47 -30 -64 -30
-129 0 -86 21 -136 81 -194 48 -47 98 -69 167 -74 97 -7 129 8 328 158 101 76
186 136 189 133 3 -2 6 -147 6 -321 1 -299 2 -320 22 -365 77 -172 301 -221
435 -93 85 80 89 101 89 471 0 173 2 315 4 315 2 0 87 -63 190 -139 201 -151
234 -166 331 -159 100 7 179 63 225 157 46 94 22 232 -54 303 -18 17 -182 143
-365 280 l-331 248 1 546 2 545 65 26 c65 26 206 112 246 151 12 11 25 17 30
12 5 -5 20 -15 34 -22 123 -64 894 -516 900 -528 4 -8 11 -49 15 -90 4 -41 9
-83 10 -92 2 -9 6 -45 10 -80 3 -35 8 -70 10 -78 2 -8 7 -44 10 -80 4 -36 9
-78 11 -95 4 -31 21 -166 30 -245 15 -128 33 -168 96 -225 172 -154 440 -43
452 187 1 28 -1 76 -6 107 -4 31 -10 79 -14 106 -3 28 -12 94 -18 148 -7 53
-9 97 -5 97 4 0 116 -63 250 -141 323 -187 311 -181 389 -182 151 -2 269 110
275 261 5 126 -49 197 -222 296 -65 37 -125 72 -133 77 -57 34 -231 135 -260
150 l-35 18 35 14 c421 180 437 189 487 275 24 41 28 57 28 127 0 89 -21 142
-76 196 -55 54 -106 74 -189 73 -75 0 -98 -7 -251 -77 -19 -9 -137 -59 -264
-113 -126 -53 -254 -108 -283 -121 -30 -13 -61 -25 -70 -25 -9 -1 -46 16 -82
37 -36 21 -83 48 -105 60 -22 12 -112 65 -201 116 -88 52 -252 146 -362 209
l-202 115 7 40 c9 51 10 234 1 300 l-6 50 95 55 c53 30 117 67 142 82 25 15
53 31 61 35 8 4 47 26 85 48 39 23 93 54 120 70 66 38 142 81 185 106 19 12
53 31 75 42 22 12 42 25 45 28 3 3 35 22 71 42 l65 36 399 -170 c432 -186 463
-195 552 -165 191 63 255 296 122 441 -42 46 -66 59 -259 140 -74 31 -155 66
-179 77 l-44 20 119 68 c65 37 146 83 179 102 33 19 101 58 150 87 50 29 103
64 118 79 103 98 109 266 13 379 -36 42 -124 84 -183 88 -64 3 -116 -14 -210
-68 -43 -24 -94 -53 -113 -64 -47 -27 -213 -123 -278 -162 -51 -30 -78 -39
-69 -23 3 4 8 37 11 74 4 37 9 77 11 90 4 23 8 61 21 168 13 115 11 149 -12
206 -28 69 -63 108 -129 141 -152 78 -341 -7 -383 -172 -10 -37 -14 -63 -28
-195 -3 -25 -9 -76 -14 -115 -5 -38 -12 -90 -14 -115 -3 -25 -8 -64 -11 -87
-3 -24 -7 -62 -10 -85 -5 -40 -8 -66 -21 -173 -11 -93 -10 -92 -107 -149 -51
-30 -108 -63 -127 -75 -19 -11 -42 -24 -50 -28 -8 -4 -58 -32 -110 -63 -52
-31 -102 -59 -110 -63 -8 -4 -31 -17 -50 -28 -110 -66 -377 -219 -391 -224 -9
-3 -31 7 -55 25 -21 16 -48 37 -59 46 -21 15 -187 99 -216 108 -15 4 -17 53
-17 550 l1 545 353 266 c384 289 393 298 415 408 32 160 -96 315 -262 319 -80
1 -123 -21 -301 -154 -95 -71 -180 -134 -189 -139 -16 -8 -17 17 -17 305 0
226 -3 324 -12 352 -27 83 -96 154 -175 181 -50 16 -136 14 -183 -5z m212
-3148 c119 -39 210 -146 234 -276 9 -44 8 -53 -3 -131 -12 -81 -94 -195 -167
-233 -121 -63 -261 -61 -362 4 -90 59 -145 137 -161 232 -11 58 -11 75 -3 127
23 148 146 270 296 292 62 9 104 5 166 -15z"/>
</g>
</svg>
