<?xml version="1.0" encoding="UTF-8"?>
<svg xmlns="http://www.w3.org/2000/svg" xmlns:xlink="http://www.w3.org/1999/xlink" xmlns:svgjs="http://svgjs.com/svgjs" version="1.1" width="512" height="512" x="0" y="0" viewBox="0 0 512.001 512.001" style="enable-background:new 0 0 512 512" xml:space="preserve" class="">
  <g>
<path xmlns="http://www.w3.org/2000/svg" style="" d="M470.373,356.728l-37.649-21.736l28.484-12.136c10.138-4.319,14.855-16.041,10.536-26.179  c-4.32-10.137-16.039-14.852-26.179-10.535l-56.073,23.891l-69.18-39.941c0.995-4.543,1.534-9.254,1.534-14.091  s-0.539-9.548-1.534-14.091l69.18-39.941l56.073,23.891c10.139,4.32,21.859-0.398,26.179-10.535  c4.319-10.138-0.398-21.859-10.536-26.179l-28.484-12.136l37.649-21.736c9.543-5.509,12.813-17.713,7.303-27.257  c-5.51-9.544-17.713-12.816-27.257-7.303L412.77,142.45l3.732-30.738c1.328-10.939-6.463-20.885-17.403-22.213  c-10.942-1.332-20.885,6.463-22.213,17.403l-7.346,60.506l-69.202,39.954c-6.937-6.329-15.23-11.192-24.384-14.11v-79.876  l48.726-36.615c8.81-6.62,10.585-19.129,3.965-27.939c-6.62-8.809-19.127-10.582-27.938-3.966l-24.753,18.601V19.985  c0-11.02-8.934-19.953-19.953-19.953c-11.02,0-19.953,8.934-19.953,19.953v43.474l-24.754-18.601  c-8.811-6.621-21.319-4.844-27.938,3.966c-6.62,8.81-4.845,21.319,3.965,27.939l48.727,36.614v79.876  c-9.154,2.918-17.447,7.781-24.384,14.11l-69.202-39.954l-7.346-60.506c-1.328-10.939-11.274-18.734-22.213-17.403  c-10.939,1.328-18.731,11.273-17.403,22.213l3.732,30.738l-37.65-21.737c-9.544-5.513-21.747-2.238-27.257,7.303  c-5.51,9.544-2.24,21.747,7.303,27.257l37.649,21.736l-28.484,12.136c-10.138,4.319-14.855,16.039-10.536,26.179  c3.233,7.586,10.609,12.137,18.366,12.137c5.405,0,2.417,0.697,63.885-25.493l69.18,39.941c-2.041,9.32-2.049,18.823,0,28.181  l-69.18,39.941l-56.074-23.891c-10.137-4.319-21.858,0.396-26.178,10.535c-4.319,10.139,0.398,21.859,10.536,26.179l28.484,12.136  l-37.649,21.736c-17.644,10.186-10.299,37.237,9.996,37.237c3.385,0,6.816-0.863,9.958-2.677l37.65-21.737l-3.732,30.738  c-1.436,11.826,7.771,22.361,19.833,22.361c9.946,0,18.554-7.428,19.783-17.551l7.346-60.506l69.202-39.954  c6.937,6.329,15.229,11.192,24.383,14.11v79.876l-48.727,36.614c-8.81,6.62-10.585,19.129-3.965,27.939  c6.619,8.811,19.128,10.585,27.938,3.966l24.754-18.601v43.473c0,11.02,8.934,19.953,19.953,19.953  c11.02,0,19.953-8.934,19.953-19.953v-43.473l24.753,18.601c8.807,6.619,21.318,4.845,27.938-3.966  c6.62-8.81,4.845-21.319-3.965-27.939l-48.726-36.615v-79.876c9.154-2.918,17.447-7.781,24.384-14.11l69.202,39.954l7.346,60.506  c1.324,10.908,11.232,18.731,22.213,17.403c10.939-1.328,18.731-11.273,17.403-22.213l-3.732-30.738l37.649,21.736  c9.546,5.513,21.749,2.237,27.257-7.303C483.186,374.44,479.916,362.237,470.373,356.728z M230.061,256  c0-14.303,11.636-25.939,25.939-25.939c14.303,0,25.939,11.637,25.939,25.939c0,14.303-11.636,25.939-25.939,25.939  C241.698,281.94,230.061,270.303,230.061,256z" fill="#5bddfc" data-original="#5bddfc" class=""/>
<g xmlns="http://www.w3.org/2000/svg">
	<path style="" d="M275.954,72.812c0,2.703,3.085,4.246,5.248,2.625c44.475-33.339,40.914-30.712,42.135-31.484   c-6.802-4.291-15.816-4.212-22.629,0.904l-24.754,18.601V72.812z" fill="#4dc0db" data-original="#00c3ff" class=""/>
	<path style="" d="M132.017,198.234l-9.509,3.735l69.181,39.941c-2.045,9.336-2.045,18.842,0,28.181l-69.18,39.941   l11.283,4.362c1.009,0.39,2.141,0.302,3.077-0.24l71.504-41.403c2.681-1.548,4.143-4.566,3.712-7.631   c-0.878-6.24-0.853-12.528,0.077-18.772c0.408-2.737-0.925-5.439-3.325-6.819l-71.056-40.868   C136.024,197.65,133.903,197.493,132.017,198.234z" fill="#4dc0db" data-original="#00c3ff" class=""/>
	<path style="" d="M252.366,74.274c2.128,1.411,4.971-0.116,4.971-2.669v-51.62c0-7.102,3.721-13.32,9.309-16.857   c-13.514-8.552-30.598,1.487-30.598,17.344v42.987L252.366,74.274z" fill="#4dc0db" data-original="#00c3ff" class=""/>
	<path style="" d="M282.678,437.512c-2.766-2.084-6.724-0.111-6.724,3.352v7.678l24.754,18.601   c6.79,5.103,15.803,5.231,22.632,0.926C322.228,467.366,281.648,436.735,282.678,437.512z" fill="#4dc0db" data-original="#00c3ff" class=""/>
	<path style="" d="M257.336,492.015v-46.48c0-4.73-5.26-7.562-9.209-4.958l-12.08,7.966v42.986   c0,15.87,17.092,25.891,30.598,17.344C261.058,505.335,257.336,499.116,257.336,492.015z" fill="#4dc0db" data-original="#00c3ff" class=""/>
	<path style="" d="M41.628,155.273l37.649,21.736l-28.034,11.945c-10.015,4.267-15.19,15.725-11.198,25.853   c3.113,7.896,10.646,12.654,18.578,12.654c4.604,0,7.327-1.395,10.912-2.923c-13.824-8.397-12.398-29.026,2.547-35.393   l20.989-8.943c3.086-1.315,3.345-5.59,0.44-7.267l-30.593-17.663c-12.972-7.489-13.381-26.164-0.648-34.163l-0.277-0.16   c-9.37-5.408-21.556-2.729-27.294,6.443C28.675,137.023,31.876,149.643,41.628,155.273z" fill="#4dc0db" data-original="#00c3ff" class=""/>
	<path style="" d="M62.918,356.728l32.326-18.664c2.191-1.265,1.996-4.49-0.332-5.481l-22.831-9.728   c-14.947-6.368-16.369-26.994-2.54-35.39l-2.669-1.137c-9.954-4.241-21.729-0.112-26.32,9.686   c-4.82,10.286-0.121,22.428,10.239,26.841l28.484,12.136l-37.649,21.736c-17.644,10.186-10.299,37.237,9.996,37.237   c3.385,0,6.816-0.863,9.958-2.677l0.686-0.396C49.57,382.914,49.918,364.232,62.918,356.728z" fill="#4dc0db" data-original="#00c3ff" class=""/>
	<path style="" d="M116.789,400.289l5.006-38.801c0.291-2.257-2.136-3.866-4.102-2.718l-18.461,10.781l-3.678,30.29   c-2.033,16.745,16.066,28.782,30.404,19.712C119.646,415.562,115.829,408.194,116.789,400.289z" fill="#4dc0db" data-original="#00c3ff" class=""/>
	<path style="" d="M99.232,142.45l12.253,7.164c4.455,2.605,9.962-1.032,9.315-6.152l-4.011-31.75   c-0.96-7.909,2.86-15.28,9.177-19.269c-3.752-2.374-8.313-3.521-13.064-2.944c-10.939,1.328-18.731,11.273-17.403,22.213   L99.232,142.45z" fill="#4dc0db" data-original="#00c3ff" class=""/>
	<path style="" d="M236.047,193.253c-1.001,0.319-1.987,0.671-2.966,1.036c-0.233,0.087-0.467,0.171-0.698,0.261   c-7.706,2.971-14.721,7.34-20.72,12.813l0,0l10.367,5.887c1.333,0.757,3.012,0.482,4.038-0.658   c10.769-11.971,24.687-17.483,29.436-18.86c1.089-0.316,1.832-1.309,1.832-2.443v-70.964c0-4.374-2.057-8.494-5.555-11.122   l-42.73-32.109c-7.811-5.869-10.66-16.527-6.273-25.256c1.73-3.442,4.259-6.046,7.174-7.885   c-9.561-6.051-22.397-2.959-28.052,7.144c-4.807,8.668-2.326,19.845,5.809,25.958l48.338,36.323V193.253z" fill="#4dc0db" data-original="#00c3ff" class=""/>
	<path style="" d="M236.047,318.757c-1.001-0.319-1.987-0.671-2.966-1.036c-0.233-0.087-0.467-0.171-0.698-0.261   c-7.706-2.971-14.721-7.34-20.72-12.813l0,0l10.367-5.887c1.333-0.757,3.012-0.482,4.038,0.658   c10.769,11.971,24.687,17.483,29.436,18.86c1.089,0.316,1.832,1.309,1.832,2.443v70.964c0,4.374-2.057,8.494-5.555,11.122   l-42.731,32.109c-7.811,5.869-10.66,16.527-6.273,25.256c1.73,3.442,4.259,6.046,7.174,7.885   c-9.572,6.058-22.408,2.941-28.052-7.144c-4.807-8.668-2.326-19.845,5.809-25.958l48.338-36.323v-79.875H236.047z" fill="#4dc0db" data-original="#00c3ff" class=""/>
</g>















</g>
</svg>
